# xmcd
#
# Track frame offsets: 
#        150
#        16246
#        24801
#        39589
#        55004
#        71052
#        85613
#        109217
#        120144
#        131829
#        147130
#        162737
#        184030
#        199906
#        217385
#        236731
#        259242
#        284742
#
# Disc length: 4207 seconds
#
# Revision: 0
# Processed by: cddbd v1.5.1PL2 Copyright (c) Steve Scherf et al.
# Submitted via: ExactAudioCopy v0.95a5
#
DISCID=0d106d12
DTITLE=B.B. King - Mr. Blues
DYEAR=2005
DGENRE=Blues
TTITLE0=The other night blues
TTITLE1=A new way of driving
TTITLE2=B.B. boogie
TTITLE3=Walkin' and cryin'
TTITLE4=It's my own fault
TTITLE5=Mr. Pawnbroker
TTITLE6=You've done lost your good thing now
TTITLE7=Catfish blues
TTITLE8=Payin' the cost to be the boss
TTITLE9=How blue can you get
TTITLE10=The letter
TTITLE11=Everday I have the blues
TTITLE12=Long nights
TTITLE13=That evil child
TTITLE14=Sweet sixteen
TTITLE15=The thrill is gone
TTITLE16=Guess who
TTITLE17=Outside help
EXTD=
EXTT0=
EXTT1=
EXTT2=
EXTT3=
EXTT4=
EXTT5=
EXTT6=
EXTT7=
EXTT8=
EXTT9=
EXTT10=
EXTT11=
EXTT12=
EXTT13=
EXTT14=
EXTT15=
EXTT16=
EXTT17=
PLAYORDER=
